<?xml version="1.0" encoding="utf-8"?>
<!-- Generator: Adobe Illustrator 22.1.0, SVG Export Plug-In . SVG Version: 6.00 Build 0)  -->
<svg version="1.1" xmlns="http://www.w3.org/2000/svg" xmlns:xlink="http://www.w3.org/1999/xlink" x="0px" y="0px"
	 viewBox="0 0 448 512" style="enable-background:new 0 0 448 512;" xml:space="preserve">
<style type="text/css">
	.st0{display:none;}
	.st1{display:inline;}
</style>
<g id="Layer_1" class="st0">
	<path class="st1" d="M190.4,445.1c-9.6-9.5-9.4-25,0.4-34.3L311.4,296H24c-13.3,0-24-10.7-24-24v-32c0-13.3,10.7-24,24-24h287.4
		L190.8,101.2c-9.7-9.3-9.9-24.8-0.4-34.3l22.2-22.2c9.3-9.4,24.5-9.4,33.9,0L441,239.1c9.4,9.3,9.4,24.5,0,33.9L246.6,467.3
		c-9.3,9.4-24.5,9.4-33.9,0L190.4,445.1L190.4,445.1z"/>
</g>
<g id="Layer_1_copy">
	<path d="M274,480.4c0,13.3-10.7,24-24,24h-52c-13.3,0-24-10.7-24-24V31c0-13.3,10.7-24,24-24h52c13.3,0,24,10.7,24,24V480.4z"/>
</g>
</svg>
