<svg id="Layer_2" data-name="Layer 2" xmlns="http://www.w3.org/2000/svg" viewBox="0 0 37 37"><defs><style>.cls-1{fill:none;stroke:#fff;stroke-linecap:round;stroke-linejoin:round;stroke-width:1.76px;}.cls-2{fill:#fff;}</style></defs><title>icon_docs</title><line class="cls-1" x1="20.6" y1="25.5" x2="29.6" y2="25.5"/><line class="cls-1" x1="20.6" y1="30.1" x2="29.6" y2="30.1"/><path class="cls-2" d="M15.7,32.35H9.1V19.15h8.6a2,2,0,0,0,2-2V8.55h7.9v3.14a10,10,0,0,1,2.7-1.37V8a2,2,0,0,0-2-2H19.7a5.44,5.44,0,0,0-3.4,1.4l-8.4,8.4a5.44,5.44,0,0,0-1.4,3.4v13.9a2,2,0,0,0,2,2h7.2Zm1.4-22v6.2H10.9Z" transform="translate(-6.5 -5.95)"/><path class="cls-2" d="M29.8,15l-2.2,2.2h0l-6.5,6.5a5.28,5.28,0,0,0-1.17,2.05,4.55,4.55,0,0,0-.23,1.35V41a2,2,0,0,0,2,2H41.5a2,2,0,0,0,2-2V15.85a1.86,1.86,0,0,0-2-1.9H32.9a4.8,4.8,0,0,0-3.1,1m.5,3.3v6.2H24.1Zm10.5,22.1H22.3V27.15h8.6a2,2,0,0,0,2-2v-8.6h7.9Z" transform="translate(-6.5 -5.95)"/><path class="cls-2" d="M17,22.67H12.6a.88.88,0,0,0,0,1.76h3.58A10.25,10.25,0,0,1,17,22.67Z" transform="translate(-6.5 -5.95)"/><path class="cls-2" d="M15.7,27.17H12.6a.88.88,0,0,0,0,1.76h3.1Z" transform="translate(-6.5 -5.95)"/></svg>