<svg id="Layer_1" data-name="Layer 1" xmlns="http://www.w3.org/2000/svg" viewBox="0 0 41.6 41.6"><defs><style>.cls-1{fill:#fff;}.cls-2{fill:none;}</style></defs><title>icon_quiz</title><path class="cls-1" d="M45.4,33.2,33.5,45.1l-2.2,2.2a1.46,1.46,0,0,1-2.2,0l-2.2-2.2-6-5.9a1.46,1.46,0,0,1,0-2.2l2.2-2.2a1.46,1.46,0,0,1,2.2,0l4.8,4.8L40.9,28.8a1.46,1.46,0,0,1,2.2,0L45.3,31a1.61,1.61,0,0,1,.5,1.1A1.5,1.5,0,0,1,45.4,33.2Z" transform="translate(-4.2 -6.2)"/><path class="cls-2" d="M28.6,14.2,23.3,8.9a2.15,2.15,0,0,0-.7-.4v6.4H29A2.15,2.15,0,0,0,28.6,14.2Z" transform="translate(-4.2 -6.2)"/><path class="cls-2" d="M22,17.1a1.58,1.58,0,0,1-1.6-1.6V8.4H6.3V40.5H18.13a4.56,4.56,0,0,1-.73-2.4,4.43,4.43,0,0,1,.51-2H15.5a.47.47,0,0,1-.5-.5V34.5a.47.47,0,0,1,.5-.5h4.16L21,32.68a4.46,4.46,0,0,1,6.44,0l1.68,1.69V17.1ZM12.6,35.6a.47.47,0,0,1-.5.5H10.2a.47.47,0,0,1-.5-.5V34.5a.47.47,0,0,1,.5-.5h1.9a.47.47,0,0,1,.5.5Zm0-6.3a.47.47,0,0,1-.5.5H10.2a.47.47,0,0,1-.5-.5V28.2a.47.47,0,0,1,.5-.5h1.9c.3-.1.5.2.5.5Zm0-6.4a.47.47,0,0,1-.5.5H10.2a.47.47,0,0,1-.5-.5V21.8a.47.47,0,0,1,.5-.5h1.9a.47.47,0,0,1,.5.5Zm13,6.4a.47.47,0,0,1-.5.5H15.5a.47.47,0,0,1-.5-.5V28.2a.47.47,0,0,1,.5-.5h9.6c.3-.1.5.2.5.5Zm0-6.4a.47.47,0,0,1-.5.5H15.5a.47.47,0,0,1-.5-.5V21.8a.47.47,0,0,1,.5-.5h9.6a.47.47,0,0,1,.5.5Z" transform="translate(-4.2 -6.2)"/><rect class="cls-1" x="5.5" y="15.1" width="2.9" height="2.1" rx="0.5" ry="0.5"/><path class="cls-1" d="M12.1,27.7H10.2a.47.47,0,0,0-.5.5v1.1a.47.47,0,0,0,.5.5h1.9a.47.47,0,0,0,.5-.5V28.2C12.6,27.9,12.4,27.6,12.1,27.7Z" transform="translate(-4.2 -6.2)"/><rect class="cls-1" x="5.5" y="27.8" width="2.9" height="2.1" rx="0.5" ry="0.5"/><rect class="cls-1" x="10.8" y="15.1" width="10.6" height="2.1" rx="0.5" ry="0.5"/><path class="cls-1" d="M15,34.5v1.1a.47.47,0,0,0,.5.5h2.41a4.94,4.94,0,0,1,.87-1.22l.88-.88H15.5A.47.47,0,0,0,15,34.5Z" transform="translate(-4.2 -6.2)"/><path class="cls-1" d="M18.13,40.5H6.3V8.4H20.4v7.1A1.58,1.58,0,0,0,22,17.1h7.1V34.36l1,1,1.2-1.2V15.5a4.2,4.2,0,0,0-1.2-2.8L24.8,7.4A4.74,4.74,0,0,0,22,6.2H5.8A1.58,1.58,0,0,0,4.2,7.8V41.1a1.58,1.58,0,0,0,1.6,1.6H20.18L18.8,41.34A4.85,4.85,0,0,1,18.13,40.5Zm4.47-32a2.15,2.15,0,0,1,.7.4l5.3,5.3a2.15,2.15,0,0,1,.4.7H22.6Z" transform="translate(-4.2 -6.2)"/><path class="cls-1" d="M25.1,27.7H15.5a.47.47,0,0,0-.5.5v1.1a.47.47,0,0,0,.5.5h9.6a.47.47,0,0,0,.5-.5V28.2C25.6,27.9,25.4,27.6,25.1,27.7Z" transform="translate(-4.2 -6.2)"/></svg>